HIERARCHY
ROOT Hips
{
 OFFSET 0.000000 0.000000 0.000000
 CHANNELS 6 Xposition Yposition Zposition Yrotation Xrotation Zrotation
 JOINT Chest
 {
  OFFSET 0.000000 9.585900 0.002600
  CHANNELS 3 Yrotation Xrotation Zrotation
  JOINT Chest2
  {
   OFFSET 0.000000 9.601200 -0.005300
   CHANNELS 3 Yrotation Xrotation Zrotation
   JOINT Chest3
   {
    OFFSET 0.000000 9.561800 0.000000
    CHANNELS 3 Yrotation Xrotation Zrotation
    JOINT Chest4
    {
     OFFSET 0.000000 9.552100 0.000000
     CHANNELS 3 Yrotation Xrotation Zrotation
     JOINT Neck
     {
      OFFSET 0.000000 14.453000 0.000000
      CHANNELS 3 Yrotation Xrotation Zrotation
      JOINT Head
      {
       OFFSET 0.000000 8.936500 -0.011300
       CHANNELS 3 Yrotation Xrotation Zrotation
       End Site
       {
        OFFSET 0.000000 17.073600 -0.006000
       }
      }
     }
     JOINT RightCollar
     {
      OFFSET -2.921100 9.558500 0.000000
      CHANNELS 3 Yrotation Xrotation Zrotation
      JOINT RightShoulder
      {
       OFFSET -13.519700 0.000000 0.000000
       CHANNELS 3 Yrotation Xrotation Zrotation
       JOINT RightElbow
       {
        OFFSET 0.000000 -29.696600 0.000000
        CHANNELS 3 Yrotation Xrotation Zrotation
        JOINT RightWrist
        {
         OFFSET 0.000000 -24.004700 0.000000
         CHANNELS 3 Yrotation Xrotation Zrotation
         End Site
         {
          OFFSET 0.000000 -17.728500 0.000000
         }
        }
       }
      }
     }
     JOINT LeftCollar
     {
      OFFSET 2.921100 9.558500 0.000000
      CHANNELS 3 Yrotation Xrotation Zrotation
      JOINT LeftShoulder
      {
       OFFSET 13.519700 0.000000 0.000000
       CHANNELS 3 Yrotation Xrotation Zrotation
       JOINT LeftElbow
       {
        OFFSET 0.000000 -29.696600 0.000000
        CHANNELS 3 Yrotation Xrotation Zrotation
        JOINT LeftWrist
        {
         OFFSET 0.000000 -24.004700 0.000000
         CHANNELS 3 Yrotation Xrotation Zrotation
         End Site
         {
          OFFSET 0.000000 -17.728500 0.000000
         }
        }
       }
      }
     }
    }
   }
  }
 }
 JOINT RightHip
 {
  OFFSET -7.771700 -0.012900 -0.001300
  CHANNELS 3 Yrotation Xrotation Zrotation
  JOINT RightKnee
  {
   OFFSET 0.000000 -40.869800 0.001200
   CHANNELS 3 Yrotation Xrotation Zrotation
   JOINT RightAnkle
   {
    OFFSET 0.000000 -39.717900 0.002100
    CHANNELS 3 Yrotation Xrotation Zrotation
    JOINT RightToe
    {
     OFFSET 0.000000 -4.965400 11.033500
     CHANNELS 3 Yrotation Xrotation Zrotation
     End Site
     {
      OFFSET 0.000000 -1.423100 5.872300
     }
    }
   }
  }
 }
 JOINT LeftHip
 {
  OFFSET 7.771700 -0.012900 -0.001300
  CHANNELS 3 Yrotation Xrotation Zrotation
  JOINT LeftKnee
  {
   OFFSET 0.000000 -40.869800 0.001200
   CHANNELS 3 Yrotation Xrotation Zrotation
   JOINT LeftAnkle
   {
    OFFSET 0.000000 -39.717900 0.002100
    CHANNELS 3 Yrotation Xrotation Zrotation
    JOINT LeftToe
    {
     OFFSET 0.000000 -4.965400 11.033500
     CHANNELS 3 Yrotation Xrotation Zrotation
     End Site
     {
      OFFSET 0.000000 -1.423100 5.872300
     }
    }
   }
  }
 }
}
MOTION
Frames: 15
Frame Time: 0.008333
0.000000 85.388000 0.000000 0.000000 -5.767877 0.000000 0.000000 11.653817 0.000000 0.000000 -5.885947 0.000000 0.000000 -0.000000 0.000000 0.000000 -0.000000 0.000000 0.000000 12.528835 0.000000 0.000000 0.711642 0.000000 0.000000 -0.000000 0.000000 0.000000 0.000000 -90.000000 0.000000 -2.309062 0.000000 0.000000 2.309062 0.000000 0.000000 -0.000000 0.000000 0.000000 -0.000000 90.000000 0.000000 -2.309062 0.000000 0.000000 2.309062 0.000000 0.000000 8.520406 0.000000 0.000000 1.905762 0.000000 -0.000000 -4.658285 0.000000 0.000000 -0.000000 0.000000 0.000000 8.520406 0.000000 0.000000 1.905762 0.000000 -0.000000 -4.658285 0.000000 0.000000 -0.000000 0.000000
-28.238912 43.920492 24.409768 178.060206 -22.238037 -0.124913 0.152410 16.150620 2.519793 -0.019418 1.637918 0.297175 -0.024399 2.747305 0.501749 0.124405 14.349368 2.638925 -0.952484 11.674849 -5.672260 0.295537 -13.382158 -5.901375 15.492369 -3.825997 -15.901700 15.669224 -45.144710 -61.493594 138.661717 -63.890145 -140.797053 -4.126365 -13.465786 -33.236771 -23.668985 -7.640323 3.878235 -14.341867 -54.414448 48.503787 -119.466185 -51.249224 136.467393 7.599573 -6.008164 37.251299 4.025916 -68.266109 2.626868 -154.929449 65.667734 -153.192718 -10.752803 -26.196681 9.524052 0.159750 -0.705520 0.083719 6.717578 -51.732219 -2.358699 179.710588 57.109523 178.566228 -2.973714 -42.882740 3.893824 0.016230 0.053863 0.013108
-28.237047 43.921024 24.404848 178.062750 -22.226603 -0.122054 0.156500 16.164162 2.528269 -0.019476 1.637255 0.297545 -0.030067 2.725678 0.492854 0.124804 14.354407 2.641858 -0.948131 11.700396 -5.674215 0.305396 -13.335539 -5.904194 15.501738 -3.813817 -15.894586 15.635876 -45.138623 -61.467888 139.035768 -63.948884 -141.096133 -4.175423 -13.465640 -33.186103 -23.668626 -7.623737 3.868056 -14.326006 -54.406981 48.454786 -119.525575 -51.083883 136.576891 7.597508 -5.947557 37.182588 4.040249 -68.274025 2.617607 -154.958649 65.664568 -153.215541 -10.789712 -26.225762 9.539784 0.168314 -0.687423 0.079938 6.726447 -51.740008 -2.363119 179.712524 57.107098 178.569937 -2.977236 -42.882573 3.895084 0.013870 0.049410 0.014466
-28.233397 43.921148 24.399249 178.055762 -22.211733 -0.122769 0.167369 16.161489 2.537704 -0.019500 1.636518 0.297460 -0.031484 2.725946 0.492641 0.125424 14.350209 2.641642 -0.942509 11.738635 -5.675653 0.296872 -13.360459 -5.905326 15.508837 -3.783417 -15.869866 15.650903 -45.130433 -61.496459 139.295855 -63.995834 -141.316071 -4.208407 -13.454202 -33.177057 -23.664399 -7.606019 3.855100 -14.291728 -54.381065 48.348827 -119.612467 -50.892709 136.702395 7.526032 -6.016866 37.056030 4.043522 -68.284597 2.629574 -154.999241 65.663361 -153.249754 -10.816261 -26.271303 9.554299 0.179719 -0.667620 0.072793 6.741970 -51.750507 -2.357298 179.716187 57.102274 178.579328 -2.982983 -42.885982 3.896962 0.011813 0.045117 0.017431
-28.231851 43.923761 24.385398 178.103702 -22.242923 -0.127717 0.122512 16.205034 2.530568 -0.019497 1.635754 0.297231 -0.030187 2.724210 0.491250 0.125783 14.349460 2.642623 -0.937915 11.789013 -5.676798 0.312332 -13.264615 -5.906781 15.505095 -3.773397 -15.863730 15.668320 -45.112364 -61.504915 139.475586 -64.026616 -141.474585 -4.234346 -13.430352 -33.187905 -23.667324 -7.586753 3.843430 -14.296794 -54.390936 48.337568 -119.719218 -50.789690 136.824021 7.506010 -6.043352 36.964798 4.022041 -68.244914 2.620479 -155.187548 65.661936 -153.419217 -10.931056 -26.327082 9.575930 0.192949 -0.668770 0.077448 6.716973 -51.710035 -2.363666 179.724709 57.100205 178.585796 -2.992224 -42.889553 3.906293 0.014678 0.044374 0.016428
-28.227992 43.923286 24.377078 178.115153 -22.234289 -0.133020 0.115824 16.208581 2.537008 -0.021243 1.629373 0.295451 -0.029957 2.728496 0.494911 0.127573 14.347869 2.637514 -0.937983 11.831721 -5.676590 0.316183 -13.197369 -5.905156 15.498120 -3.763504 -15.859111 15.681523 -45.116540 -61.517357 139.595088 -64.048522 -141.575788 -4.266125 -13.400152 -33.195528 -23.658838 -7.546482 3.825328 -14.322677 -54.419636 48.337337 -119.840624 -50.696003 136.947691 7.496118 -6.047545 36.890747 4.008127 -68.248583 2.637529 -155.242210 65.651820 -153.469408 -10.962942 -26.385393 9.591734 0.218495 -0.655108 0.078681 6.708479 -51.715356 -2.359877 179.731794 57.093409 178.596098 -2.985363 -42.894134 3.898173 0.014180 0.042039 0.017245
-28.227183 43.922130 24.368002 178.123612 -22.226980 -0.119723 0.107649 16.212755 2.523755 -0.023216 1.623830 0.294571 -0.027675 2.733527 0.496238 0.128902 14.345240 2.633185 -0.939839 11.877301 -5.675237 0.313682 -13.149563 -5.901817 15.487027 -3.754940 -15.854838 15.720336 -45.077938 -61.512464 139.528933 -64.026602 -141.554468 -4.285715 -13.384383 -33.196081 -23.658127 -7.530662 3.820612 -14.315788 -54.424000 48.297459 -119.967546 -50.605644 137.072634 7.476907 -6.008099 36.846013 4.042220 -68.250438 2.602448 -155.296895 65.641190 -153.519283 -11.009606 -26.450189 9.617485 0.223760 -0.654427 0.079197 6.723527 -51.715503 -2.380719 179.733929 57.089230 178.596350 -2.989716 -42.896989 3.899279 0.013824 0.040092 0.017131
-28.226271 43.919864 24.359572 178.131090 -22.214272 -0.109194 0.099254 16.205561 2.511567 -0.021835 1.629254 0.295764 -0.027429 2.732930 0.495665 0.130113 14.340657 2.629558 -0.940639 11.926439 -5.674005 0.310462 -13.098848 -5.898289 15.476901 -3.744840 -15.848672 15.753533 -45.018747 -61.464741 139.476915 -63.978102 -141.544889 -4.305029 -13.323222 -33.173430 -23.659381 -7.512469 3.815532 -14.326667 -54.436463 48.297812 -120.089615 -50.548289 137.195888 7.456385 -5.973778 36.799567 4.064006 -68.259638 2.579861 -155.340142 65.626737 -153.563350 -11.032582 -26.512026 9.632616 0.225566 -0.630598 0.078789 6.729496 -51.722780 -2.391317 179.742490 57.083171 178.598397 -2.996409 -42.900858 3.902889 0.011793 0.036627 0.018818
-28.225061 43.916152 24.352775 178.123053 -22.191311 -0.098344 0.107329 16.187835 2.504959 -0.018938 1.633999 0.296043 -0.027030 2.731977 0.494925 0.126327 14.333253 2.628842 -0.938641 11.980224 -5.673898 0.304842 -13.047461 -5.894651 15.473029 -3.730403 -15.842903 15.766682 -45.006268 -61.444858 139.502081 -63.964330 -141.572543 -4.327866 -13.261918 -33.122599 -23.659493 -7.491441 3.805909 -14.337866 -54.447284 48.301164 -120.199585 -50.490791 137.314789 7.447288 -5.987289 36.719825 4.091643 -68.280092 2.561948 -155.358068 65.617860 -153.581165 -11.043729 -26.566462 9.644470 0.226576 -0.624291 0.079492 6.745871 -51.742767 -2.399842 179.750602 57.074439 178.603075 -2.996663 -42.903605 3.901870 0.010089 0.030966 0.019887
-28.224350 43.911873 24.345832 178.115395 -22.170742 -0.088544 0.128036 16.184558 2.508694 -0.028119 1.622724 0.292454 -0.015956 2.742605 0.497090 0.116375 14.318698 2.625794 -0.942134 12.035626 -5.674211 0.295182 -12.998588 -5.888526 15.468967 -3.716375 -15.838636 15.777224 -44.991618 -61.425999 139.506124 -63.950200 -141.586587 -4.351369 -13.213262 -33.054054 -23.665717 -7.471979 3.794845 -14.319782 -54.441681 48.233329 -120.288132 -50.375519 137.418714 7.438146 -6.049812 36.589253 4.111683 -68.300157 2.550281 -155.370251 65.607820 -153.595520 -11.050654 -26.609123 9.651781 0.232065 -0.630130 0.083454 6.748548 -51.759474 -2.390777 179.777966 57.066020 178.614632 -3.006098 -42.911428 3.913531 0.012066 0.033101 0.018644
-28.234896 43.910384 24.330625 178.151009 -22.203878 -0.029991 0.079200 16.223335 2.436624 -0.013584 1.641012 0.295838 -0.029830 2.724952 0.493737 0.141391 14.343265 2.623506 -0.965672 12.064618 -5.665952 0.282834 -12.953103 -5.879643 15.446831 -3.731846 -15.833025 15.783910 -44.974784 -61.407000 139.645305 -63.972178 -141.694687 -4.312012 -13.159565 -32.994025 -23.696323 -7.486666 3.809865 -14.312665 -54.438188 48.198425 -120.344239 -50.302165 137.490680 7.418608 -6.075886 36.495049 4.220440 -68.268624 2.394030 -155.338202 65.561160 -153.591471 -11.052013 -26.593243 9.676497 0.268000 -0.705468 0.094322 6.790034 -51.704670 -2.488334 179.762250 57.072040 178.580643 -3.034463 -42.912316 3.934713 0.020557 0.039749 0.014098
-28.236700 43.905976 24.322506 178.151649 -22.197247 -0.015012 0.079174 16.223005 2.423049 -0.011667 1.647502 0.295453 -0.030820 2.719394 0.493655 0.143629 14.345309 2.622059 -0.970974 12.085639 -5.663314 0.271683 -12.881507 -5.869815 15.443143 -3.733053 -15.829479 15.782001 -44.955339 -61.378497 139.708619 -63.974189 -141.744171 -4.336459 -13.118564 -32.897469 -23.704233 -7.483042 3.810694 -14.302825 -54.432044 48.159771 -120.358491 -50.248460 137.513281 7.392284 -6.114909 36.435088 4.236125 -68.280082 2.373296 -155.301163 65.536217 -153.570876 -11.028729 -26.592544 9.679405 0.238614 -0.748654 0.099008 6.800674 -51.706413 -2.503582 179.761977 57.064227 178.571809 -3.039198 -42.916918 3.935183 0.020458 0.039075 0.015041
-28.236287 43.901225 24.315577 178.147949 -22.188543 -0.014106 0.090933 16.227323 2.425800 -0.017050 1.645414 0.296265 -0.023467 2.732105 0.492785 0.141951 14.331168 2.621480 -0.983424 12.144884 -5.660050 0.258560 -12.857864 -5.861962 15.440098 -3.734716 -15.827057 15.762672 -44.943511 -61.342311 139.810917 -63.975964 -141.821157 -4.365103 -13.081080 -32.785824 -23.712341 -7.471258 3.800208 -14.301846 -54.431154 48.136830 -120.441708 -50.117990 137.655588 7.386713 -6.059726 36.328325 4.221002 -68.294609 2.390158 -155.280296 65.521206 -153.561152 -11.005291 -26.575468 9.667549 0.220430 -0.795533 0.109457 6.801494 -51.713107 -2.499816 179.755781 57.053802 178.564397 -3.040924 -42.926386 3.933429 0.020845 0.041347 0.013428
-28.232200 43.895388 24.312343 178.125004 -22.162774 -0.029772 0.119840 16.210005 2.452517 -0.018590 1.648686 0.296783 -0.022093 2.722990 0.491112 0.142198 14.361392 2.617196 -0.994690 12.173369 -5.654471 0.248428 -12.839261 -5.856991 15.454664 -3.733182 -15.823790 15.734285 -44.959011 -61.328665 139.937994 -63.983441 -141.912167 -4.387704 -13.049805 -32.677918 -23.713243 -7.460134 3.785614 -14.338376 -54.454205 48.174183 -120.489211 -50.041787 137.748691 7.390296 -6.020173 36.260455 4.179159 -68.325673 2.457377 -155.253955 65.510260 -153.541129 -10.960944 -26.597975 9.656764 0.216123 -0.792485 0.109020 6.784252 -51.744754 -2.451474 179.762071 57.037512 178.565491 -3.034421 -42.934471 3.927443 0.016670 0.040637 0.011288
-28.232453 43.889890 24.309676 178.101542 -22.138940 -0.019604 0.138042 16.206948 2.454568 -0.016241 1.641704 0.295215 -0.021362 2.723092 0.489096 0.141774 14.357077 2.615704 -0.999474 12.186688 -5.653672 0.235481 -12.794800 -5.851838 15.460019 -3.732797 -15.823481 15.697417 -44.950479 -61.279497 140.063233 -63.974679 -141.997682 -4.402472 -13.029258 -32.587356 -23.709944 -7.453559 3.776161 -14.340124 -54.460263 48.167281 -120.533039 -49.990943 137.825136 7.380243 -6.005341 36.203344 4.202482 -68.356413 2.454198 -155.187386 65.497926 -153.486350 -10.926339 -26.571754 9.651033 0.206460 -0.813975 0.109937 6.803556 -51.767931 -2.449269 179.766400 57.028952 178.563301 -3.035029 -42.940334 3.929837 0.016197 0.042471 0.009473
